<svg width="10" height="16" viewBox="0 0 10 16" fill="none" xmlns="http://www.w3.org/2000/svg">
<g clip-path="url(#clip0_37_595)">
<path d="M2.22217 2.75862C2.22217 1.23508 3.46582 0 4.99995 0C6.53406 0 7.77772 1.23508 7.77772 2.75862V7.72414C7.77772 9.24767 6.53406 10.4828 4.99995 10.4828C3.46582 10.4828 2.22217 9.24767 2.22217 7.72414V2.75862Z" fill="white"/>
<path fill-rule="evenodd" clip-rule="evenodd" d="M1.11111 7.17282C1.11111 6.86816 0.862383 6.62109 0.555556 6.62109C0.248727 6.62109 0 6.86816 0 7.17282C0 8.61646 0.512712 10.0122 1.44207 11.0505C2.24435 11.9468 3.30402 12.5156 4.44444 12.656V15.4487C4.44444 15.7533 4.69317 16.0004 5 16.0004C5.30683 16.0004 5.55556 15.7533 5.55556 15.4487V12.656C6.696 12.5156 7.75567 11.9468 8.55794 11.0505C9.48728 10.0122 10 8.61646 10 7.17282C10 6.86816 9.75128 6.62109 9.44444 6.62109C9.13761 6.62109 8.88889 6.86816 8.88889 7.17282C8.88889 8.363 8.46511 9.49331 7.72744 10.3174C6.99172 11.1394 6.00889 11.5866 5 11.5866C3.99113 11.5866 3.00827 11.1394 2.27253 10.3174C1.5349 9.49331 1.11111 8.363 1.11111 7.17282Z" fill="white"/>
</g>
<defs>
<clipPath id="clip0_37_595">
<rect width="10" height="16" fill="white"/>
</clipPath>
</defs>
</svg>
