<svg width="19" height="15" viewBox="0 0 19 15" fill="none" xmlns="http://www.w3.org/2000/svg">
<path fill-rule="evenodd" clip-rule="evenodd" d="M14.5024 11.4438C14.5027 11.0973 14.8018 10.8166 15.1704 10.8168C15.7269 10.8172 16.3442 10.5097 16.8492 9.80799C17.3548 9.10535 17.6603 8.11601 17.6611 7.05442C17.6619 5.99284 17.3579 5.00309 16.8534 4.29976C16.3495 3.59732 15.7327 3.28901 15.1762 3.28864C14.8076 3.28838 14.5089 3.00726 14.5092 2.66072C14.5095 2.31418 14.8086 2.03346 15.1772 2.03371C16.2944 2.03447 17.282 2.65262 17.9603 3.59815C18.6379 4.54278 18.9971 5.7875 18.9961 7.05533C18.9951 8.32317 18.6341 9.5674 17.955 10.5111C17.2752 11.4557 16.2866 12.0725 15.1695 12.0717C14.8008 12.0715 14.5022 11.7904 14.5024 11.4438Z" fill="white"/>
<path fill-rule="evenodd" clip-rule="evenodd" d="M13.1675 8.93406C13.1677 8.58752 13.4668 8.3068 13.8355 8.30705C13.9137 8.30711 14.072 8.26379 14.2384 8.03254C14.4054 7.80039 14.5204 7.44937 14.5207 7.0535C14.5211 6.65762 14.4066 6.30645 14.2399 6.07408C14.0739 5.8426 13.9156 5.79906 13.8374 5.79901C13.4688 5.79876 13.1701 5.51763 13.1704 5.17109C13.1706 4.82455 13.4697 4.54383 13.8384 4.54408C14.4773 4.54452 15.0064 4.89791 15.3468 5.37247C15.6866 5.84614 15.8562 6.45228 15.8558 7.05441C15.8553 7.65654 15.6847 8.26245 15.3442 8.73565C15.003 9.20975 14.4734 9.56241 13.8345 9.56198C13.4658 9.56173 13.1672 9.2806 13.1675 8.93406Z" fill="white"/>
<path fill-rule="evenodd" clip-rule="evenodd" d="M11.4295 1.17932C11.4324 0.31223 10.5995 -0.287609 9.99009 0.142743L4.64422 3.91772C4.62557 3.91669 4.60678 3.91616 4.58787 3.91616H1C0.447715 3.91616 0 4.36388 0 4.91616V9.81825C0 10.3705 0.447715 10.8182 1 10.8182H4.58787C4.67141 10.8182 4.75255 10.808 4.83011 10.7887L10.0425 14.5424C10.6516 14.9811 11.3834 14.5433 11.3862 13.7386L11.4295 1.17932Z" fill="white"/>
</svg>
