<svg width="139" height="139" viewBox="0 0 139 139" fill="none" xmlns="http://www.w3.org/2000/svg">
<path d="M104.25 41.7002L56.4688 97.3002L34.75 72.0275" stroke="white" stroke-width="8" stroke-linecap="round" stroke-linejoin="round"/>
<path fill-rule="evenodd" clip-rule="evenodd" d="M69.5 131.057C103.497 131.057 131.057 103.497 131.057 69.5C131.057 35.5029 103.497 7.94286 69.5 7.94286C35.5029 7.94286 7.94286 35.5029 7.94286 69.5C7.94286 103.497 35.5029 131.057 69.5 131.057ZM69.5 139C107.884 139 139 107.884 139 69.5C139 31.1162 107.884 0 69.5 0C31.1162 0 0 31.1162 0 69.5C0 107.884 31.1162 139 69.5 139Z" fill="white"/>
</svg>
