<svg width="56" height="56" viewBox="0 0 56 56" fill="none" xmlns="http://www.w3.org/2000/svg">
<g clip-path="url(#clip0_91_1894)">
<g filter="url(#filter0_d_91_1894)">
<circle cx="28" cy="28" r="23" fill="#AD30FF"/>
</g>
<path d="M35.1189 22C35.6811 22 36.1351 22.1785 36.4811 22.5354C36.827 22.8725 37 23.2989 37 23.8144V34.5822C37 36.228 36.6108 37.6856 35.8324 38.9547C35.0757 40.2238 34.027 41.2153 32.6865 41.9292C31.3459 42.6431 29.7892 43 28.0162 43C26.2432 43 24.6757 42.6431 23.3135 41.9292C21.973 41.2153 20.9135 40.2238 20.1351 38.9547C19.3784 37.6856 19 36.228 19 34.5822V23.8144C19 23.2989 19.1946 22.8725 19.5838 22.5354C19.973 22.1785 20.4703 22 21.0757 22C21.573 22 22.0162 22.1785 22.4054 22.5354C22.8162 22.8725 23.0216 23.2989 23.0216 23.8144V34.5822C23.0216 35.5737 23.2486 36.4363 23.7027 37.17C24.1784 37.8839 24.7946 38.4391 25.5514 38.8357C26.3297 39.2323 27.1514 39.4306 28.0162 39.4306C28.9459 39.4306 29.8108 39.2323 30.6108 38.8357C31.4108 38.4391 32.0595 37.8839 32.5568 37.17C33.0541 36.4363 33.3027 35.5737 33.3027 34.5822V23.8144C33.3027 23.2989 33.4649 22.8725 33.7892 22.5354C34.1135 22.1785 34.5568 22 35.1189 22Z" fill="white"/>
<rect x="12" y="17" width="4" height="16" rx="2" fill="white"/>
<rect x="40" y="17" width="4" height="16" rx="2" fill="white"/>
</g>
<defs>
<filter id="filter0_d_91_1894" x="1" y="3" width="54" height="54" filterUnits="userSpaceOnUse" color-interpolation-filters="sRGB">
<feFlood flood-opacity="0" result="BackgroundImageFix"/>
<feColorMatrix in="SourceAlpha" type="matrix" values="0 0 0 0 0 0 0 0 0 0 0 0 0 0 0 0 0 0 127 0" result="hardAlpha"/>
<feOffset dy="2"/>
<feGaussianBlur stdDeviation="2"/>
<feComposite in2="hardAlpha" operator="out"/>
<feColorMatrix type="matrix" values="0 0 0 0 0 0 0 0 0 0 0 0 0 0 0 0 0 0 0.3 0"/>
<feBlend mode="normal" in2="BackgroundImageFix" result="effect1_dropShadow_91_1894"/>
<feBlend mode="normal" in="SourceGraphic" in2="effect1_dropShadow_91_1894" result="shape"/>
</filter>
<clipPath id="clip0_91_1894">
<rect width="56" height="56" fill="white"/>
</clipPath>
</defs>
</svg>
