<svg width="56" height="77" viewBox="0 0 56 77" fill="none" xmlns="http://www.w3.org/2000/svg">
<g filter="url(#filter0_d_101_466)">
<circle cx="28" cy="28" r="23" fill="#AD30FF"/>
</g>
<path d="M35.1189 22C35.6811 22 36.1351 22.1785 36.4811 22.5354C36.827 22.8725 37 23.2989 37 23.8144V34.5822C37 36.228 36.6108 37.6856 35.8324 38.9547C35.0757 40.2238 34.027 41.2153 32.6865 41.9292C31.3459 42.6431 29.7892 43 28.0162 43C26.2432 43 24.6757 42.6431 23.3135 41.9292C21.973 41.2153 20.9135 40.2238 20.1351 38.9547C19.3784 37.6856 19 36.228 19 34.5822V23.8144C19 23.2989 19.1946 22.8725 19.5838 22.5354C19.973 22.1785 20.4703 22 21.0757 22C21.573 22 22.0162 22.1785 22.4054 22.5354C22.8162 22.8725 23.0216 23.2989 23.0216 23.8144V34.5822C23.0216 35.5737 23.2486 36.4363 23.7027 37.17C24.1784 37.8839 24.7946 38.4391 25.5514 38.8357C26.3297 39.2323 27.1514 39.4306 28.0162 39.4306C28.9459 39.4306 29.8108 39.2323 30.6108 38.8357C31.4108 38.4391 32.0595 37.8839 32.5568 37.17C33.0541 36.4363 33.3027 35.5737 33.3027 34.5822V23.8144C33.3027 23.2989 33.4649 22.8725 33.7892 22.5354C34.1135 22.1785 34.5568 22 35.1189 22Z" fill="white"/>
<rect x="12" y="17" width="4" height="16" rx="2" fill="white"/>
<rect x="40" y="17" width="4" height="16" rx="2" fill="white"/>
<path d="M18.2918 61.083C18.5412 61.083 18.7395 61.168 18.8868 61.338C19.0342 61.4967 19.1078 61.7007 19.1078 61.95V68.393C19.1078 69.2997 18.9095 70.11 18.5128 70.824C18.1162 71.538 17.5722 72.099 16.8808 72.507C16.1895 72.9037 15.3905 73.102 14.4838 73.102C13.5885 73.102 12.7895 72.9037 12.0868 72.507C11.3955 72.099 10.8458 71.538 10.4378 70.824C10.0412 70.11 9.84282 69.2997 9.84282 68.393V61.95C9.84282 61.7007 9.92782 61.4967 10.0978 61.338C10.2678 61.168 10.4888 61.083 10.7608 61.083C10.9762 61.083 11.1688 61.168 11.3388 61.338C11.5202 61.4967 11.6108 61.7007 11.6108 61.95V68.393C11.6108 68.9937 11.7412 69.5207 12.0018 69.974C12.2738 70.416 12.6308 70.7673 13.0728 71.028C13.5148 71.2773 13.9852 71.402 14.4838 71.402C15.0278 71.402 15.5265 71.2773 15.9798 71.028C16.4332 70.7673 16.7958 70.416 17.0678 69.974C17.3512 69.5207 17.4928 68.9937 17.4928 68.393V61.95C17.4928 61.7007 17.5608 61.4967 17.6968 61.338C17.8442 61.168 18.0425 61.083 18.2918 61.083ZM21.573 64.16H25.568C25.7946 64.16 25.9816 64.2393 26.129 64.398C26.2876 64.5453 26.367 64.7323 26.367 64.959C26.367 65.1743 26.2876 65.3557 26.129 65.503C25.9816 65.6503 25.7946 65.724 25.568 65.724H21.573C21.3463 65.724 21.1536 65.6503 20.995 65.503C20.8476 65.3443 20.774 65.1573 20.774 64.942C20.774 64.7153 20.8476 64.5283 20.995 64.381C21.1536 64.2337 21.3463 64.16 21.573 64.16ZM23.358 61.95C23.6073 61.95 23.8113 62.035 23.97 62.205C24.1286 62.3637 24.208 62.5677 24.208 62.817V70.705C24.208 70.909 24.242 71.0733 24.31 71.198C24.378 71.3227 24.4686 71.4077 24.582 71.453C24.7066 71.4983 24.8313 71.521 24.956 71.521C25.0806 71.521 25.1883 71.4983 25.279 71.453C25.381 71.4077 25.5 71.385 25.636 71.385C25.772 71.385 25.8966 71.4473 26.01 71.572C26.1233 71.6967 26.18 71.8667 26.18 72.082C26.18 72.354 26.0326 72.575 25.738 72.745C25.4433 72.915 25.126 73 24.786 73C24.5933 73 24.3666 72.983 24.106 72.949C23.8453 72.915 23.5903 72.83 23.341 72.694C23.103 72.558 22.9046 72.3427 22.746 72.048C22.5873 71.742 22.508 71.317 22.508 70.773V62.817C22.508 62.5677 22.5873 62.3637 22.746 62.205C22.916 62.035 23.12 61.95 23.358 61.95ZM28.1306 64.16H32.1256C32.3522 64.16 32.5392 64.2393 32.6866 64.398C32.8452 64.5453 32.9246 64.7323 32.9246 64.959C32.9246 65.1743 32.8452 65.3557 32.6866 65.503C32.5392 65.6503 32.3522 65.724 32.1256 65.724H28.1306C27.9039 65.724 27.7112 65.6503 27.5526 65.503C27.4052 65.3443 27.3316 65.1573 27.3316 64.942C27.3316 64.7153 27.4052 64.5283 27.5526 64.381C27.7112 64.2337 27.9039 64.16 28.1306 64.16ZM29.9156 61.95C30.1649 61.95 30.3689 62.035 30.5276 62.205C30.6862 62.3637 30.7656 62.5677 30.7656 62.817V70.705C30.7656 70.909 30.7996 71.0733 30.8676 71.198C30.9356 71.3227 31.0262 71.4077 31.1396 71.453C31.2642 71.4983 31.3889 71.521 31.5136 71.521C31.6382 71.521 31.7459 71.4983 31.8366 71.453C31.9386 71.4077 32.0576 71.385 32.1936 71.385C32.3296 71.385 32.4542 71.4473 32.5676 71.572C32.6809 71.6967 32.7376 71.8667 32.7376 72.082C32.7376 72.354 32.5902 72.575 32.2956 72.745C32.0009 72.915 31.6836 73 31.3436 73C31.1509 73 30.9242 72.983 30.6636 72.949C30.4029 72.915 30.1479 72.83 29.8986 72.694C29.6606 72.558 29.4622 72.3427 29.3036 72.048C29.1449 71.742 29.0656 71.317 29.0656 70.773V62.817C29.0656 62.5677 29.1449 62.3637 29.3036 62.205C29.4736 62.035 29.6776 61.95 29.9156 61.95ZM38.8892 73.17C37.9485 73.17 37.1325 72.9773 36.4412 72.592C35.7498 72.1953 35.2115 71.657 34.8262 70.977C34.4522 70.2857 34.2652 69.498 34.2652 68.614C34.2652 67.6167 34.4635 66.7667 34.8602 66.064C35.2682 65.35 35.7952 64.806 36.4412 64.432C37.0872 64.0467 37.7728 63.854 38.4982 63.854C39.0535 63.854 39.5805 63.9673 40.0792 64.194C40.5778 64.4093 41.0198 64.7153 41.4052 65.112C41.8018 65.4973 42.1135 65.9563 42.3402 66.489C42.5668 67.0103 42.6858 67.5827 42.6972 68.206C42.6858 68.4327 42.5952 68.6197 42.4252 68.767C42.2552 68.9143 42.0568 68.988 41.8302 68.988H35.2172L34.8092 67.543H41.2012L40.8782 67.849V67.424C40.8555 67.0273 40.7252 66.6817 40.4872 66.387C40.2492 66.081 39.9545 65.8487 39.6032 65.69C39.2518 65.52 38.8835 65.435 38.4982 65.435C38.1582 65.435 37.8295 65.4917 37.5122 65.605C37.2062 65.707 36.9285 65.877 36.6792 66.115C36.4412 66.353 36.2485 66.6703 36.1012 67.067C35.9652 67.4523 35.8972 67.934 35.8972 68.512C35.8972 69.1353 36.0275 69.6793 36.2882 70.144C36.5488 70.6087 36.9002 70.9713 37.3422 71.232C37.7842 71.4813 38.2715 71.606 38.8042 71.606C39.2235 71.606 39.5692 71.5663 39.8412 71.487C40.1132 71.3963 40.3398 71.2887 40.5212 71.164C40.7025 71.0393 40.8612 70.9203 40.9972 70.807C41.1672 70.705 41.3372 70.654 41.5072 70.654C41.7112 70.654 41.8812 70.7277 42.0172 70.875C42.1532 71.011 42.2212 71.1753 42.2212 71.368C42.2212 71.6173 42.0965 71.844 41.8472 72.048C41.5412 72.3427 41.1162 72.6033 40.5722 72.83C40.0395 73.0567 39.4785 73.17 38.8892 73.17ZM45.4687 73C45.2194 73 45.0154 72.9207 44.8567 72.762C44.698 72.592 44.6187 72.3823 44.6187 72.133V64.925C44.6187 64.6757 44.698 64.4717 44.8567 64.313C45.0154 64.143 45.2194 64.058 45.4687 64.058C45.7067 64.058 45.905 64.143 46.0637 64.313C46.2337 64.4717 46.3187 64.6757 46.3187 64.925V66.829L46.1487 66.098C46.2394 65.7807 46.3754 65.486 46.5567 65.214C46.7494 64.942 46.976 64.704 47.2367 64.5C47.4974 64.296 47.7864 64.1373 48.1037 64.024C48.4324 63.9107 48.7724 63.854 49.1237 63.854C49.4184 63.854 49.6734 63.9333 49.8887 64.092C50.104 64.2507 50.2117 64.449 50.2117 64.687C50.2117 64.993 50.1324 65.2197 49.9737 65.367C49.815 65.503 49.6394 65.571 49.4467 65.571C49.2767 65.571 49.1124 65.537 48.9537 65.469C48.795 65.3897 48.608 65.35 48.3927 65.35C48.1547 65.35 47.911 65.4123 47.6617 65.537C47.4124 65.6617 47.1857 65.8487 46.9817 66.098C46.7777 66.336 46.6134 66.6193 46.4887 66.948C46.3754 67.2767 46.3187 67.645 46.3187 68.053V72.133C46.3187 72.3823 46.2337 72.592 46.0637 72.762C45.905 72.9207 45.7067 73 45.4687 73Z" fill="black"/>
<defs>
<filter id="filter0_d_101_466" x="1" y="3" width="54" height="54" filterUnits="userSpaceOnUse" color-interpolation-filters="sRGB">
<feFlood flood-opacity="0" result="BackgroundImageFix"/>
<feColorMatrix in="SourceAlpha" type="matrix" values="0 0 0 0 0 0 0 0 0 0 0 0 0 0 0 0 0 0 127 0" result="hardAlpha"/>
<feOffset dy="2"/>
<feGaussianBlur stdDeviation="2"/>
<feComposite in2="hardAlpha" operator="out"/>
<feColorMatrix type="matrix" values="0 0 0 0 0 0 0 0 0 0 0 0 0 0 0 0 0 0 0.3 0"/>
<feBlend mode="normal" in2="BackgroundImageFix" result="effect1_dropShadow_101_466"/>
<feBlend mode="normal" in="SourceGraphic" in2="effect1_dropShadow_101_466" result="shape"/>
</filter>
</defs>
</svg>
